<svg xmlns="http://www.w3.org/2000/svg" viewBox="0 0 1200 1600"><defs>
  <linearGradient id="paper" x1="0" y1="0" x2="1" y2="1"><stop stop-color="#eadfca"/><stop offset=".55" stop-color="#cdbb9b"/><stop offset="1" stop-color="#a58d69"/></linearGradient>
  <radialGradient id="inkfade"><stop stop-color="#3d352b" stop-opacity=".18"/><stop offset="1" stop-color="#11100f" stop-opacity="0"/></radialGradient>
  <linearGradient id="gold" x1="0" y1="0" x2="1" y2="1"><stop stop-color="#e5c879"/><stop offset=".5" stop-color="#9a7134"/><stop offset="1" stop-color="#5e431e"/></linearGradient>
  <filter id="shadow"><feDropShadow dx="0" dy="6" stdDeviation="8" flood-color="#000" flood-opacity=".55"/></filter>
  <filter id="glow"><feGaussianBlur stdDeviation="4" result="b"/><feMerge><feMergeNode in="b"/><feMergeNode in="SourceGraphic"/></feMerge></filter>
  <filter id="grain"><feTurbulence type="fractalNoise" baseFrequency=".9" numOctaves="3" seed="7" result="n"/><feBlend in="SourceGraphic" in2="n" mode="multiply"/></filter>
  <pattern id="hatch" width="9" height="9" patternUnits="userSpaceOnUse" patternTransform="rotate(22)"><path d="M0 1h9" stroke="#231f1b" stroke-opacity=".08" stroke-width="1"/></pattern>
</defs><rect width="1200" height="1600" fill="#15120f"/><rect x="42" y="42" width="1116" height="1516" rx="44" fill="#231c17" stroke="#8b6c47" stroke-width="5"/><circle cx="600" cy="490" r="370" fill="#8b6c47" opacity=".12"/><g transform="translate(600 465)" fill="none" stroke="#d7c8ad"><rect x="-245" y="-140" width="490" height="280" rx="28" stroke-width="7"/><circle cx="-112" cy="-12" r="64" stroke-width="7"/><circle cx="112" cy="-12" r="64" stroke-width="7"/><path d="M-48-12h96M-172 101h344l-35-64H-137z" stroke-width="6"/><path d="M-112-76c62 37 128 37 224 0" stroke-width="3" opacity=".4"/></g><text x="600" y="1030" text-anchor="middle" font-family="Georgia,serif" font-weight="bold" font-size="73" letter-spacing="5" fill="#e3d7c0">LA VOZ QUE DEJASTE ATRÁS</text><text x="600" y="1110" text-anchor="middle" font-family="Georgia,serif" font-size="31" font-style="italic" fill="#bba98c">Siete cintas. Una noche. Dos versiones.</text><path d="M270 1200h660" stroke="#8b6c47" stroke-width="3"/><text x="600" y="1285" text-anchor="middle" font-family="Georgia,serif" font-size="30" letter-spacing="7" fill="#a98b5c">MR · CUENTOS DE ÁNIMAS</text></svg>