<svg xmlns="http://www.w3.org/2000/svg" viewBox="0 0 1920 1080"><defs>
  <linearGradient id="paper" x1="0" y1="0" x2="1" y2="1"><stop stop-color="#eadfca"/><stop offset=".55" stop-color="#cdbb9b"/><stop offset="1" stop-color="#a58d69"/></linearGradient>
  <radialGradient id="inkfade"><stop stop-color="#3d352b" stop-opacity=".18"/><stop offset="1" stop-color="#11100f" stop-opacity="0"/></radialGradient>
  <linearGradient id="gold" x1="0" y1="0" x2="1" y2="1"><stop stop-color="#e5c879"/><stop offset=".5" stop-color="#9a7134"/><stop offset="1" stop-color="#5e431e"/></linearGradient>
  <filter id="shadow"><feDropShadow dx="0" dy="6" stdDeviation="8" flood-color="#000" flood-opacity=".55"/></filter>
  <filter id="glow"><feGaussianBlur stdDeviation="4" result="b"/><feMerge><feMergeNode in="b"/><feMergeNode in="SourceGraphic"/></feMerge></filter>
  <filter id="grain"><feTurbulence type="fractalNoise" baseFrequency=".9" numOctaves="3" seed="7" result="n"/><feBlend in="SourceGraphic" in2="n" mode="multiply"/></filter>
  <pattern id="hatch" width="9" height="9" patternUnits="userSpaceOnUse" patternTransform="rotate(22)"><path d="M0 1h9" stroke="#231f1b" stroke-opacity=".08" stroke-width="1"/></pattern>
</defs><rect width="1920" height="1080" fill="#130f0c"/><rect x="30" y="30" width="1860" height="1020" rx="70" fill="#2b1b13"/><path d="M0 110C480 45 960 80 1920 30M0 286C620 205 1170 298 1920 185M0 620C530 520 1200 650 1920 510M0 920C640 830 1180 930 1920 810" fill="none" stroke="#5e3c26" stroke-width="11" opacity=".23"/><ellipse cx="960" cy="550" rx="700" ry="425" fill="#14110f" opacity=".7"/><ellipse cx="960" cy="550" rx="670" ry="395" fill="none" stroke="#a68144" stroke-opacity=".16" stroke-width="4"/><g opacity=".25"><circle cx="260" cy="215" r="95" fill="#d9a54b"/><circle cx="1660" cy="215" r="95" fill="#d9a54b"/></g><g fill="#70513a" opacity=".65"><path d="M120 930c210-155 342-134 479-56-135 23-273 70-401 146z"/><path d="M1800 930c-210-155-342-134-479-56 135 23 273 70 401 146z"/></g></svg>